<svg width="700" height="840" viewBox="0 0 700 840" xmlns="http://www.w3.org/2000/svg" font-family="Segoe UI, Helvetica, Arial, sans-serif">
  <defs>
    <marker id="arrow" viewBox="0 0 10 10" refX="8" refY="5" markerWidth="6" markerHeight="6" orient="auto-start-reverse">
      <path d="M2 1L8 5L2 9" fill="none" stroke="#666" stroke-width="1.5" stroke-linecap="round" stroke-linejoin="round"/>
    </marker>
  </defs>
  <rect width="700" height="840" fill="#ffffff"/>
  <text x="350" y="26" text-anchor="middle" font-size="16" font-weight="600" fill="#222">Playbook AI — technical architecture (4 sponsors)</text>

  <g>
    <rect x="260" y="40" width="180" height="42" rx="8" fill="#F1EFE8" stroke="#5F5E5A" stroke-width="0.5"/>
    <text x="350" y="66" text-anchor="middle" font-size="14" font-weight="500" fill="#2C2C2A">run.py entrypoint</text>
  </g>
  <line x1="350" y1="82" x2="350" y2="104" stroke="#666" stroke-width="1.5" marker-end="url(#arrow)"/>

  <g>
    <rect x="160" y="104" width="380" height="60" rx="12" fill="#EEEDFE" stroke="#534AB7" stroke-width="1"/>
    <text x="350" y="127" text-anchor="middle" font-size="14" font-weight="500" fill="#26215C">Band coordination layer</text>
    <text x="350" y="147" text-anchor="middle" font-size="12" fill="#534AB7">Registers agents, @mention routing, dynamic recruiting</text>
  </g>
  <line x1="350" y1="164" x2="350" y2="186" stroke="#666" stroke-width="1.5" marker-end="url(#arrow)"/>

  <g>
    <rect x="265" y="186" width="170" height="46" rx="8" fill="#EEEDFE" stroke="#534AB7" stroke-width="0.5"/>
    <text x="350" y="205" text-anchor="middle" font-size="14" font-weight="500" fill="#26215C">Scout</text>
    <text x="350" y="222" text-anchor="middle" font-size="12" fill="#534AB7">Profile + recruit</text>
  </g>
  <line x1="350" y1="232" x2="350" y2="254" stroke="#666" stroke-width="1.5" marker-end="url(#arrow)"/>

  <g font-size="12">
    <rect x="60" y="254" width="108" height="46" rx="8" fill="#E1F5EE" stroke="#0F6E56" stroke-width="0.5"/>
    <text x="114" y="273" text-anchor="middle" font-size="14" font-weight="500" fill="#04342C">LinkedIn</text>
    <text x="114" y="290" text-anchor="middle" fill="#0F6E56">agent</text>
    <rect x="178" y="254" width="92" height="46" rx="8" fill="#E1F5EE" stroke="#0F6E56" stroke-width="0.5"/>
    <text x="224" y="273" text-anchor="middle" font-size="14" font-weight="500" fill="#04342C">X</text>
    <text x="224" y="290" text-anchor="middle" fill="#0F6E56">agent</text>
    <rect x="280" y="254" width="112" height="46" rx="8" fill="#E1F5EE" stroke="#0F6E56" stroke-width="0.5"/>
    <text x="336" y="273" text-anchor="middle" font-size="14" font-weight="500" fill="#04342C">Instagram</text>
    <text x="336" y="290" text-anchor="middle" fill="#0F6E56">agent</text>
    <rect x="402" y="254" width="104" height="46" rx="8" fill="#E1F5EE" stroke="#0F6E56" stroke-width="0.5"/>
    <text x="454" y="273" text-anchor="middle" font-size="14" font-weight="500" fill="#04342C">TikTok</text>
    <text x="454" y="290" text-anchor="middle" fill="#0F6E56">agent</text>
    <rect x="516" y="254" width="112" height="46" rx="8" fill="#E1F5EE" stroke="#0F6E56" stroke-width="0.5"/>
    <text x="572" y="273" text-anchor="middle" font-size="14" font-weight="500" fill="#04342C">YouTube</text>
    <text x="572" y="290" text-anchor="middle" fill="#0F6E56">agent</text>
  </g>
  <line x1="350" y1="300" x2="350" y2="324" stroke="#666" stroke-width="1.5" marker-end="url(#arrow)"/>

  <g>
    <rect x="220" y="324" width="260" height="48" rx="8" fill="#E1F5EE" stroke="#0F6E56" stroke-width="0.5"/>
    <text x="350" y="344" text-anchor="middle" font-size="14" font-weight="500" fill="#04342C">Per-platform playbooks</text>
    <text x="350" y="362" text-anchor="middle" font-size="12" fill="#0F6E56">LLM seam: parse competitors</text>
  </g>
  <line x1="350" y1="372" x2="350" y2="396" stroke="#666" stroke-width="1.5" marker-end="url(#arrow)"/>

  <g>
    <rect x="245" y="396" width="210" height="48" rx="8" fill="#FAECE7" stroke="#993C1D" stroke-width="0.5"/>
    <text x="350" y="416" text-anchor="middle" font-size="14" font-weight="500" fill="#4A1B0C">Strategist</text>
    <text x="350" y="434" text-anchor="middle" font-size="12" fill="#993C1D">LLM seam: converge</text>
  </g>
  <line x1="350" y1="444" x2="350" y2="468" stroke="#666" stroke-width="1.5" marker-end="url(#arrow)"/>

  <g>
    <rect x="230" y="468" width="240" height="40" rx="8" fill="#FAECE7" stroke="#993C1D" stroke-width="0.5"/>
    <text x="350" y="492" text-anchor="middle" font-size="14" font-weight="500" fill="#4A1B0C">Outreach: find + draft</text>
  </g>

  <g>
    <rect x="50" y="324" width="118" height="120" rx="12" fill="#EAF3DE" stroke="#3B6D11" stroke-width="0.5"/>
    <text x="109" y="356" text-anchor="middle" font-size="14" font-weight="500" fill="#173404">Nimble</text>
    <text x="109" y="380" text-anchor="middle" font-size="12" fill="#3B6D11">search +</text>
    <text x="109" y="396" text-anchor="middle" font-size="12" fill="#3B6D11">extract</text>
    <text x="109" y="420" text-anchor="middle" font-size="12" fill="#3B6D11">data spine</text>
  </g>
  <line x1="168" y1="380" x2="215" y2="380" stroke="#666" stroke-width="1.5" marker-end="url(#arrow)"/>

  <g>
    <rect x="532" y="324" width="118" height="120" rx="12" fill="#FAEEDA" stroke="#854F0B" stroke-width="0.5"/>
    <text x="591" y="352" text-anchor="middle" font-size="14" font-weight="500" fill="#412402">InsForge</text>
    <text x="591" y="374" text-anchor="middle" font-size="12" fill="#854F0B">model gateway</text>
    <text x="591" y="398" text-anchor="middle" font-size="12" fill="#854F0B">LLM seams</text>
    <text x="591" y="414" text-anchor="middle" font-size="12" fill="#854F0B">route here</text>
  </g>
  <line x1="532" y1="348" x2="480" y2="348" stroke="#666" stroke-width="1.5" marker-end="url(#arrow)"/>
  <line x1="532" y1="420" x2="455" y2="420" stroke="#666" stroke-width="1.5" marker-end="url(#arrow)"/>

  <line x1="350" y1="508" x2="350" y2="532" stroke="#666" stroke-width="1.5" marker-end="url(#arrow)"/>

  <g>
    <rect x="160" y="532" width="380" height="64" rx="12" fill="#FAEEDA" stroke="#854F0B" stroke-width="1"/>
    <text x="350" y="555" text-anchor="middle" font-size="14" font-weight="500" fill="#412402">InsForge backend — Postgres + auth + hosting</text>
    <text x="350" y="577" text-anchor="middle" font-size="12" fill="#854F0B">All findings, playbooks, people, runs persist here</text>
  </g>
  <line x1="350" y1="596" x2="350" y2="620" stroke="#666" stroke-width="1.5" marker-end="url(#arrow)"/>

  <g>
    <rect x="190" y="620" width="320" height="64" rx="12" fill="#E6F1FB" stroke="#185FA5" stroke-width="0.5"/>
    <text x="350" y="643" text-anchor="middle" font-size="14" font-weight="500" fill="#042C53">Kylon Tools API — execution</text>
    <text x="350" y="665" text-anchor="middle" font-size="12" fill="#185FA5">proxy/tools/execute, GMAIL_SEND_EMAIL</text>
  </g>

  <line x1="160" y1="564" x2="100" y2="564" stroke="#666" stroke-width="1.5" marker-end="url(#arrow)"/>
  <line x1="100" y1="564" x2="100" y2="756" stroke="#666" stroke-width="1.5" marker-end="url(#arrow)"/>
  <g>
    <rect x="50" y="756" width="250" height="52" rx="8" fill="#FAEEDA" stroke="#854F0B" stroke-width="0.5"/>
    <text x="175" y="776" text-anchor="middle" font-size="14" font-weight="500" fill="#412402">Judge dashboard</text>
    <text x="175" y="794" text-anchor="middle" font-size="12" fill="#854F0B">Reads from InsForge, hosted on it</text>
  </g>

  <line x1="350" y1="684" x2="350" y2="756" stroke="#666" stroke-width="1.5" marker-end="url(#arrow)"/>
  <g>
    <rect x="340" y="756" width="310" height="52" rx="8" fill="#EAF3DE" stroke="#3B6D11" stroke-width="0.5"/>
    <text x="495" y="776" text-anchor="middle" font-size="14" font-weight="500" fill="#173404">Per-platform action pack</text>
    <text x="495" y="794" text-anchor="middle" font-size="12" fill="#3B6D11">Post, contact, message, sent</text>
  </g>
</svg>
